<svg width="981" height="980" viewBox="0 0 981 980" fill="none" xmlns="http://www.w3.org/2000/svg">
<ellipse cx="490.5" cy="490" rx="490.5" ry="490" fill="black"/>
<path d="M399.723 542.281H424.605V551.695H388.004V494.82H399.723V542.281ZM385.504 624.171C385.504 619.979 386.311 616.242 387.926 612.96C389.54 609.679 391.858 607.14 394.879 605.343C397.926 603.546 401.454 602.648 405.465 602.648C411.168 602.648 415.816 604.393 419.41 607.882C423.03 611.372 425.048 616.111 425.465 622.101L425.543 624.992C425.543 631.476 423.733 636.684 420.113 640.617C416.493 644.523 411.637 646.476 405.543 646.476C399.449 646.476 394.579 644.523 390.934 640.617C387.314 636.71 385.504 631.398 385.504 624.679V624.171ZM396.793 624.992C396.793 629.002 397.548 632.075 399.059 634.21C400.569 636.32 402.73 637.374 405.543 637.374C408.277 637.374 410.413 636.333 411.949 634.249C413.486 632.14 414.254 628.781 414.254 624.171C414.254 620.239 413.486 617.192 411.949 615.031C410.413 612.869 408.251 611.788 405.465 611.788C402.704 611.788 400.569 612.869 399.059 615.031C397.548 617.166 396.793 620.486 396.793 624.992ZM385.621 718.249C385.621 711.765 387.158 706.544 390.23 702.585C393.329 698.627 397.496 696.648 402.73 696.648C407.366 696.648 410.973 698.236 413.551 701.413L414.02 697.429H424.254V738.288C424.254 741.986 423.408 745.203 421.715 747.937C420.048 750.671 417.691 752.755 414.645 754.187C411.598 755.619 408.03 756.335 403.941 756.335C400.842 756.335 397.822 755.71 394.879 754.46C391.936 753.236 389.71 751.648 388.199 749.695L393.199 742.82C396.012 745.971 399.423 747.546 403.434 747.546C406.428 747.546 408.759 746.739 410.426 745.124C412.092 743.536 412.926 741.27 412.926 738.328V736.062C410.322 739.005 406.897 740.476 402.652 740.476C397.574 740.476 393.46 738.497 390.309 734.538C387.184 730.554 385.621 725.281 385.621 718.718V718.249ZM396.91 719.07C396.91 722.898 397.678 725.906 399.215 728.093C400.751 730.255 402.861 731.335 405.543 731.335C408.98 731.335 411.441 730.046 412.926 727.468V709.695C411.415 707.117 408.98 705.828 405.621 705.828C402.913 705.828 400.777 706.934 399.215 709.148C397.678 711.361 396.91 714.669 396.91 719.07ZM385.504 812.171C385.504 807.979 386.311 804.242 387.926 800.96C389.54 797.679 391.858 795.14 394.879 793.343C397.926 791.546 401.454 790.648 405.465 790.648C411.168 790.648 415.816 792.393 419.41 795.882C423.03 799.372 425.048 804.111 425.465 810.101L425.543 812.992C425.543 819.476 423.733 824.684 420.113 828.617C416.493 832.523 411.637 834.476 405.543 834.476C399.449 834.476 394.579 832.523 390.934 828.617C387.314 824.71 385.504 819.398 385.504 812.679V812.171ZM396.793 812.992C396.793 817.002 397.548 820.075 399.059 822.21C400.569 824.32 402.73 825.374 405.543 825.374C408.277 825.374 410.413 824.333 411.949 822.249C413.486 820.14 414.254 816.781 414.254 812.171C414.254 808.239 413.486 805.192 411.949 803.031C410.413 800.869 408.251 799.788 405.465 799.788C402.704 799.788 400.569 800.869 399.059 803.031C397.548 805.166 396.793 808.486 396.793 812.992ZM410.152 916.015C410.152 914.635 409.462 913.554 408.082 912.773C406.728 911.966 404.54 911.249 401.52 910.624C391.467 908.515 386.441 904.244 386.441 897.812C386.441 894.062 387.991 890.937 391.09 888.437C394.215 885.911 398.29 884.648 403.316 884.648C408.681 884.648 412.965 885.911 416.168 888.437C419.397 890.963 421.012 894.244 421.012 898.281H409.723C409.723 896.666 409.202 895.338 408.16 894.296C407.118 893.229 405.491 892.695 403.277 892.695C401.376 892.695 399.905 893.124 398.863 893.984C397.822 894.843 397.301 895.937 397.301 897.265C397.301 898.515 397.887 899.531 399.059 900.312C400.257 901.067 402.262 901.731 405.074 902.304C407.887 902.851 410.257 903.476 412.184 904.179C418.147 906.367 421.129 910.156 421.129 915.546C421.129 919.4 419.475 922.525 416.168 924.921C412.861 927.291 408.59 928.476 403.355 928.476C399.814 928.476 396.663 927.851 393.902 926.601C391.168 925.325 389.02 923.593 387.457 921.406C385.895 919.192 385.113 916.809 385.113 914.257H395.816C395.921 916.262 396.663 917.799 398.043 918.867C399.423 919.934 401.272 920.468 403.59 920.468C405.751 920.468 407.379 920.064 408.473 919.257C409.592 918.424 410.152 917.343 410.152 916.015Z" fill="#31DC71"/>
<path d="M164 355.132C164 287.233 219.044 232.189 286.943 232.189H477.25V478.076H286.943C219.044 478.076 164 423.032 164 355.132V355.132Z" fill="#31DC71"/>
<path d="M478.901 979.247C429.197 979.663 388.471 939.708 387.937 890.005L382.805 412.514L623.753 410.496L628.885 887.988C629.419 937.691 589.559 978.32 539.855 978.736L478.901 979.247Z" fill="#31DC71"/>
<path d="M817.456 355.038C817.756 422.99 762.914 478.259 694.961 478.484L477.144 479.207L476.055 233.131L693.873 232.408C761.826 232.183 817.155 287.086 817.456 355.038V355.038Z" fill="#31DC71"/>
</svg>
