<svg width="28" height="28" viewBox="0 0 28 28" fill="none" xmlns="http://www.w3.org/2000/svg">
<path d="M25.6663 13.9999C25.6663 15.1899 25.4913 16.3449 25.153 17.4299C24.2313 15.4116 22.2013 13.9999 19.833 13.9999C16.613 13.9999 13.9997 16.6133 13.9997 19.8333C13.9997 22.2016 15.4113 24.2316 17.4297 25.1533C16.3447 25.4916 15.1897 25.6666 13.9997 25.6666C7.55967 25.6666 2.33301 20.4399 2.33301 13.9999C2.33301 7.55992 7.55967 2.33325 13.9997 2.33325C20.4397 2.33325 25.6663 7.55992 25.6663 13.9999Z" fill="white" fill-opacity="0.3"/>
<path d="M17.4182 25.1416C15.3999 24.2199 13.9999 22.1899 13.9999 19.8333C13.9999 18.5499 14.4082 17.3716 15.1199 16.4033C14.7466 16.3566 14.3732 16.3333 13.9999 16.3333C10.1732 16.3333 6.89491 18.6316 5.44824 21.9216C7.58324 24.2199 10.6166 25.6666 13.9999 25.6666C15.1899 25.6666 16.3332 25.4916 17.4182 25.1416Z" fill="white" fill-opacity="0.6"/>
<path d="M15.3063 16.1467H15.318C15.9597 15.3533 16.823 14.7233 17.803 14.3617C18.3513 13.5917 18.6663 12.67 18.6663 11.6667C18.6663 9.08833 16.578 7 13.9997 7C11.4213 7 9.33301 9.08833 9.33301 11.6667C9.33301 14.245 11.4213 16.3333 13.9997 16.3333C14.4547 16.3333 14.898 16.2633 15.318 16.1467" fill="white" fill-opacity="0.6"/>
<path d="M19.8333 25.6667C23.055 25.6667 25.6667 23.055 25.6667 19.8333C25.6667 16.6117 23.055 14 19.8333 14C16.6117 14 14 16.6117 14 19.8333C14 23.055 16.6117 25.6667 19.8333 25.6667Z" fill="white" fill-opacity="0.6"/>
<path d="M17.0332 19.0748L19.1332 21.1748L22.6332 17.6748" stroke="white" stroke-opacity="0.6" stroke-width="1.2" stroke-miterlimit="10"/>
</svg>
